<?xml version="1.0" encoding="UTF-8" standalone="no"?>
<!-- Created with Inkscape (http://www.inkscape.org/) -->

<svg
   version="1.1"
   id="svg102"
   width="537.84473"
   height="351.95065"
   viewBox="0 0 537.84473 351.95066"
   sodipodi:docname="illustration.ai"
   xmlns:inkscape="http://www.inkscape.org/namespaces/inkscape"
   xmlns:sodipodi="http://sodipodi.sourceforge.net/DTD/sodipodi-0.dtd"
   xmlns="http://www.w3.org/2000/svg"
   xmlns:svg="http://www.w3.org/2000/svg">
  <defs
     id="defs106">
    <clipPath
       clipPathUnits="userSpaceOnUse"
       id="clipPath458">
      <path
         d="M 0,796.502 H 629 V 0 H 0 Z"
         id="path456" />
    </clipPath>
  </defs>
  <sodipodi:namedview
     id="namedview104"
     pagecolor="#ffffff"
     bordercolor="#666666"
     borderopacity="1.0"
     inkscape:showpageshadow="2"
     inkscape:pageopacity="0.0"
     inkscape:pagecheckerboard="0"
     inkscape:deskcolor="#d1d1d1"
     showgrid="false" />
  <g
     id="g450"
     inkscape:groupmode="layer"
     inkscape:label="Page 3"
     transform="matrix(1.3333333,0,0,-1.3333333,-150.41059,753.15587)">
    <g
       id="g452">
      <g
         id="g454"
         clip-path="url(#clipPath458)"
         style="fill:#f5bfaf;fill-opacity:1">
        <g
           id="g460"
           transform="translate(335.3323,327.2554)"
           style="fill:#f5bfaf;fill-opacity:1">
          <path
             d="m 0,0 c 0.115,5.478 2.138,10.429 3.257,15.592 1.095,5.052 3.015,9.735 5.142,14.309 2.02,4.341 3.865,8.813 6.623,12.619 1.341,1.849 2.866,3.515 4.187,5.383 0.85,1.202 1.526,2.589 2.2,3.947 1.651,3.329 3.112,6.798 4.912,10.011 2.792,4.984 5.936,9.668 9.733,13.691 3.705,3.925 8.098,6.138 12.784,7.724 4.823,1.632 9.576,3.604 14.428,5.077 5.538,1.682 10.974,3.966 16.688,4.704 1.465,0.189 2.907,0.693 4.371,0.931 5.163,0.839 10.325,2.066 15.498,2.318 6.38,0.311 12.806,0.743 19.158,-0.241 2.222,-0.344 4.468,-0.633 6.628,-1.27 3.452,-1.016 6.93,-1.065 10.46,-0.687 2.825,0.302 5.588,0.019 8.366,-0.607 2.67,-0.601 5.415,-0.85 8.143,-1.031 0.824,-0.055 1.835,0.417 2.529,1.023 2.4,2.095 4.571,4.599 7.069,6.493 3.04,2.305 6.277,4.266 9.526,6.128 1.084,0.621 2.481,0.702 3.713,0.645 5.174,-0.241 6.507,-5.889 4.647,-10.005 -1.152,-2.553 -2.733,-4.934 -4.428,-7.051 -3.98,-4.973 -8.766,-8.832 -13.329,-12.995 -1.291,-1.179 -2.462,-2.556 -3.629,-3.912 -3.082,-3.583 -6.621,-6.324 -10.474,-8.582 -2.544,-1.491 -4.955,-3.32 -7.753,-4.096 -0.549,-0.153 -1.098,-0.313 -1.651,-0.449 -3.664,-0.899 -7.345,-1.7 -10.987,-2.717 -3.061,-0.855 -6.114,-1.169 -9.224,-1.008 -3.789,0.197 -7.583,0.439 -11.378,0.366 C 103.7,56.242 100.188,55.729 96.675,55.512 92.789,55.273 89.015,54.226 85.212,53.274 81.278,52.288 77.283,51.698 73.331,50.811 68.806,49.794 64.594,47.741 61.31,43.779 59.648,41.773 58.456,39.206 57.136,36.829 56.28,35.289 55.675,33.554 54.788,32.043 50.585,24.883 45.921,18.22 39.641,13.407 38.629,12.631 37.583,11.877 36.485,11.305 31.951,8.944 27.881,5.397 23.015,3.826 21.873,3.457 20.817,2.008 20.025,0.786 18.558,-1.481 17.395,-4.016 15.957,-6.312 14.393,-8.808 12.74,-11.243 10.979,-13.55 9.259,-15.804 7.032,-16.538 4.604,-15.677 2.11,-14.792 0.531,-12.702 0.261,-9.665 -0.022,-6.474 0.071,-3.224 0,0"
             style="fill:#f5bfaf;fill-opacity:1;fill-rule:nonzero;stroke:none"
             id="path462" />
        </g>
        <g
           id="g464"
           transform="translate(121.9195,424.5857)"
           style="fill:#f5bfaf;fill-opacity:1">
          <path
             d="m 0,0 c -2.443,12.481 -4.244,24.576 -7.167,33.168 -1.808,5.317 -3.489,11.968 0.507,15.914 2.273,2.244 5.82,2.771 8.95,2.138 C 18.489,47.944 29.253,29.685 43.603,22.331 58.46,14.719 74.416,9.124 88.113,-0.614 c 11.541,-8.206 21.033,-19.105 32.936,-26.778 8.41,-5.421 17.838,-9.108 26.289,-14.467 21.864,-13.866 35.905,-39.293 35.994,-65.183 0.013,-3.988 -0.331,-8.145 -2.367,-11.575 -2.035,-3.43 -6.191,-5.885 -10.031,-4.809 -5.327,1.492 -6.911,8.057 -8.419,13.379 -5.381,19.001 -21.201,32.763 -39.824,38.057 -22.631,6.434 -45.97,16.383 -69.785,17.328 -6.144,0.243 -12.368,-0.741 -18.41,0.403 C 11.929,-49.985 4.75,-24.264 0,0"
             style="fill:#f5bfaf;fill-opacity:1;fill-rule:nonzero;stroke:none"
             id="path466" />
        </g>
        <g
           id="g468"
           transform="translate(325.9748,400.4585)"
           style="fill:#f5bfaf;fill-opacity:1">
          <path
             d="m 0,0 c 1.476,-9.27 7.569,-39.377 -6.953,-42.513 -5.208,-1.125 -10.251,3.05 -12.547,7.859 -2.295,4.809 -2.743,10.273 -4.361,15.35 -3.503,10.991 -12.286,19.531 -21.81,26.038 -9.525,6.507 -20.057,11.456 -29.453,18.148 -10.219,7.278 -18.911,16.483 -28.764,24.249 -9.854,7.766 -21.446,14.24 -33.987,14.599 -3.459,0.1 -6.987,-0.263 -10.334,0.618 -3.344,0.88 -6.58,3.436 -6.878,6.881 -0.723,8.338 13.293,6.431 17.811,6.215 20.532,-0.978 40.262,9.106 60.817,8.978 27.861,-0.174 53.068,-19.879 65.673,-44.727 C -8.211,36.618 -2.912,18.29 0,0"
             style="fill:#f5bfaf;fill-opacity:1;fill-rule:nonzero;stroke:none"
             id="path470" />
        </g>
        <g
           id="g472"
           transform="translate(396.7444,497.8779)"
           style="fill:#f5bfaf;fill-opacity:1">
          <path
             d="m 0,0 c 5.484,0.501 10.543,1.148 15.622,1.385 7.439,0.346 13.364,4.082 19.082,8.214 2.384,1.723 4.37,4.019 6.444,6.146 1.946,1.995 4.205,2.903 6.912,2.163 2.521,-0.689 4.102,-2.394 4.582,-5.016 2.063,-11.259 0.032,-21.108 -9.537,-28.525 -7.214,-5.59 -14.141,-11.562 -21.502,-16.945 -4.447,-3.252 -9.409,-5.832 -14.269,-8.477 -4.501,-2.45 -8.997,-4.795 -12.053,-9.142 -0.582,-0.829 -1.607,-1.332 -2.363,-2.054 -6.6,-6.3 -13.52,-12.312 -19.645,-19.045 -3.458,-3.801 -5.742,-8.718 -8.3,-13.275 -2.705,-4.82 -6.328,-8.757 -10.798,-11.867 -6.833,-4.755 -15.426,-1.366 -17.187,6.748 -0.992,4.57 -1.506,9.187 0.634,13.667 0.513,1.072 0.982,2.25 1.089,3.415 0.771,8.406 4.028,16.01 8.102,23.169 3.322,5.837 7.366,11.298 11.436,16.663 3.524,4.644 7.414,9.031 11.376,13.315 2.42,2.617 5.195,4.93 7.966,7.188 3.587,2.924 7.269,5.741 11.023,8.447 C -7.894,-1.309 -3.894,-0.099 0,0"
             style="fill:#f5bfaf;fill-opacity:1;fill-rule:nonzero;stroke:none"
             id="path474" />
        </g>
        <g
           id="g476"
           transform="translate(350.092,542.5336)"
           style="fill:#f5bfaf;fill-opacity:1">
          <path
             d="m 0,0 c 0.933,-2.602 1.366,-5.406 1.153,-8.417 -0.558,-7.894 -4.233,-15.635 -7.817,-23.176 -3.583,-7.541 -7.192,-15.315 -7.604,-23.2 -0.503,-9.634 3.397,-20.203 -3.437,-28.266 -1.116,-1.317 -2.817,-2.581 -4.449,-2.269 -1.726,0.329 -2.321,2.168 -2.662,3.757 -4.785,22.308 -16.999,41.272 -21.844,63.364 -2.631,12.064 7.397,26.072 13.329,37.105 0.512,0.952 1.06,1.945 1.978,2.61 1.961,1.423 4.602,0.752 6.635,-0.117 C -14.679,17.099 -3.607,10.061 0,0"
             style="fill:#f5bfaf;fill-opacity:1;fill-rule:nonzero;stroke:none"
             id="path478" />
        </g>
      </g>
    </g>
  </g>
</svg>
